<?xml version="1.0" standalone="no"?>
<!DOCTYPE svg PUBLIC "-//W3C//DTD SVG 20010904//EN"
 "http://www.w3.org/TR/2001/REC-SVG-20010904/DTD/svg10.dtd">
<svg version="1.0" xmlns="http://www.w3.org/2000/svg"
 width="538.000000pt" height="93.000000pt" viewBox="0 0 538.000000 93.000000"
 preserveAspectRatio="xMidYMid meet">

<g transform="translate(0.000000,93.000000) scale(0.100000,-0.100000)"
fill="#000000" stroke="none">
<path d="M283 697 c12 -10 17 -29 17 -69 0 -46 -4 -58 -22 -72 -13 -9 12 1 55
21 l79 38 -31 26 c-17 14 -50 35 -73 48 -24 12 -35 16 -25 8z"/>
<path d="M350 554 c-47 -18 -77 -33 -67 -33 15 -1 17 -12 17 -94 0 -61 -4 -97
-12 -105 -7 -7 19 -1 57 13 139 53 220 91 223 107 3 15 -113 149 -127 147 -3
-1 -44 -16 -91 -35z"/>
<path d="M1127 429 c-15 -79 -27 -147 -27 -151 0 -5 9 -8 19 -8 22 0 27 12 37
85 9 66 19 86 29 56 4 -13 21 -52 38 -88 l30 -66 42 89 41 89 13 -82 c13 -77
15 -83 37 -83 20 0 23 4 19 23 -3 12 -16 80 -29 152 -20 111 -25 126 -34 105
-6 -14 -28 -63 -50 -110 l-39 -85 -23 52 c-12 29 -34 78 -49 109 l-26 56 -28
-143z"/>
<path d="M1577 558 c-3 -7 -35 -75 -71 -150 -64 -137 -65 -138 -40 -138 19 0
28 8 40 35 14 35 15 35 75 35 59 0 60 0 75 -35 11 -26 20 -35 39 -35 l24 0
-24 53 c-92 204 -113 246 -118 235z m26 -133 c9 -20 17 -38 17 -40 0 -3 -18
-5 -39 -5 l-39 0 15 40 c9 22 19 40 23 40 3 0 14 -16 23 -35z"/>
<path d="M2482 420 c-69 -147 -70 -150 -46 -150 18 0 29 9 41 35 16 34 18 35
75 35 58 0 59 -1 74 -35 11 -26 20 -35 39 -35 l24 0 -24 53 c-12 28 -43 96
-67 149 l-45 98 -71 -150z m91 5 c9 -20 17 -38 17 -40 0 -3 -18 -5 -39 -5
l-40 0 17 40 c9 22 20 40 23 40 3 0 13 -16 22 -35z"/>
<path d="M2932 434 c-82 -177 -78 -164 -50 -164 18 0 27 8 37 35 12 35 12 35
75 35 62 0 62 0 75 -35 9 -27 18 -35 37 -35 13 0 24 2 24 4 0 4 -130 289 -134
293 -1 1 -30 -59 -64 -133z m83 -4 c22 -42 19 -50 -20 -50 -19 0 -35 5 -35 10
0 13 29 70 35 70 2 0 11 -13 20 -30z"/>
<path d="M923 550 c-43 -18 -58 -84 -25 -112 9 -9 36 -25 60 -37 39 -20 43
-25 40 -54 -3 -29 -6 -32 -38 -32 -24 0 -37 6 -45 20 -12 24 -45 21 -45 -4 0
-54 108 -83 150 -41 49 49 33 111 -37 145 -54 26 -65 38 -58 58 10 24 35 29
63 11 21 -14 26 -14 38 -2 13 12 12 17 -4 31 -23 21 -70 29 -99 17z"/>
<path d="M1760 411 c0 -134 1 -141 20 -141 18 0 20 7 20 55 0 30 3 55 8 55 4
0 24 -25 45 -55 29 -42 44 -55 63 -55 28 0 26 8 -24 75 l-30 39 29 27 c34 32
38 75 10 110 -14 18 -31 23 -80 27 l-61 4 0 -141z m104 83 c23 -22 20 -41 -9
-60 -37 -24 -55 -12 -55 36 0 36 3 40 24 40 14 0 32 -7 40 -16z"/>
<path d="M1960 530 c0 -16 7 -20 35 -20 l35 0 0 -120 c0 -113 1 -120 20 -120
19 0 20 7 20 120 l0 120 30 0 c23 0 30 4 30 20 0 18 -7 20 -85 20 -78 0 -85
-2 -85 -20z"/>
<path d="M2180 410 l0 -140 53 0 c128 0 204 107 149 209 -25 47 -74 71 -144
71 l-58 0 0 -140z m139 74 c26 -22 31 -33 31 -69 0 -59 -30 -94 -88 -102 l-42
-6 0 102 0 101 34 0 c22 0 45 -9 65 -26z"/>
<path d="M2680 530 c0 -16 7 -20 35 -20 l35 0 0 -120 c0 -113 1 -120 20 -120
19 0 20 7 20 120 l0 120 35 0 c28 0 35 4 35 20 0 19 -7 20 -90 20 -83 0 -90
-1 -90 -20z"/>
<path d="M4213 532 c1 -14 5 -18 11 -12 7 7 6 14 -1 21 -9 9 -12 7 -10 -9z"/>
<path d="M3443 467 c-13 -29 -10 -114 6 -130 8 -8 11 10 11 71 0 45 -2 82 -3
82 -2 0 -9 -10 -14 -23z"/>
<path d="M4530 471 c-14 -27 -13 -104 3 -124 10 -14 12 -4 12 63 0 44 -1 80
-2 80 -1 0 -7 -9 -13 -19z"/>
<path d="M3948 453 c-10 -54 -9 -131 2 -138 7 -4 10 22 10 79 0 89 -4 106 -12
59z"/>
<path d="M510 360 c-41 -16 -106 -35 -145 -44 l-70 -16 3 -84 c3 -75 1 -85
-15 -88 -10 -3 8 -10 40 -17 108 -23 232 15 311 97 33 34 37 45 32 69 -11 41
-55 113 -69 112 -7 -1 -46 -14 -87 -29z"/>
<path d="M4864 330 c-11 -59 -10 -70 7 -53 6 6 9 32 7 59 l-3 49 -11 -55z"/>
<path d="M3200 320 c0 -5 5 -10 10 -10 6 0 10 5 10 10 0 6 -4 10 -10 10 -5 0
-10 -4 -10 -10z"/>
<path d="M2703 95 c0 -27 2 -40 4 -29 2 12 13 30 24 40 10 9 19 22 19 27 0 6
-9 2 -19 -7 -18 -17 -19 -17 -24 1 -3 10 -5 -4 -4 -32z"/>
<path d="M2773 95 c0 -27 2 -38 4 -22 2 15 2 37 0 50 -2 12 -4 0 -4 -28z"/>
<path d="M2801 99 c2 -31 3 -36 6 -15 l5 28 29 -28 29 -28 -1 40 c-1 25 -3 31
-6 15 l-5 -23 -29 28 -29 28 1 -45z"/>
<path d="M2907 119 c-28 -39 13 -88 48 -59 20 17 19 30 -2 30 -15 0 -16 -2 -3
-10 12 -7 12 -10 -4 -16 -21 -8 -48 19 -40 41 8 20 35 27 50 14 9 -7 14 -8 14
-1 0 10 -23 22 -40 22 -5 0 -15 -9 -23 -21z"/>
<path d="M3023 95 c0 -27 2 -40 4 -27 3 13 12 22 23 22 11 0 20 -9 23 -22 2
-13 4 0 4 27 0 28 -2 40 -4 28 -3 -14 -12 -23 -23 -23 -11 0 -20 9 -23 23 -2
12 -4 0 -4 -28z"/>
<path d="M3100 95 c0 -40 2 -45 23 -44 16 1 18 2 5 6 -10 2 -18 11 -18 18 0 7
8 16 18 18 16 4 16 5 0 6 -10 0 -18 7 -18 15 0 8 8 17 18 19 13 4 11 5 -5 6
-21 1 -23 -4 -23 -44z"/>
<path d="M3252 98 c-2 -40 1 -48 16 -48 11 0 13 3 5 8 -6 4 -13 25 -16 47 -4
40 -4 40 -5 -7z"/>
<path d="M3300 93 c4 -44 5 -45 8 -13 2 19 8 41 14 47 8 10 6 13 -8 13 -17 0
-19 -6 -14 -47z"/>
<path d="M3390 120 c0 -11 -7 -20 -15 -20 -8 0 -15 7 -15 15 0 8 -4 15 -10 15
-5 0 -10 -16 -10 -35 0 -19 5 -35 10 -35 6 0 10 7 10 15 0 24 28 17 33 -7 2
-13 5 -2 6 25 0 26 -1 47 -4 47 -3 0 -5 -9 -5 -20z"/>
<path d="M3444 132 c-6 -4 -14 -17 -18 -28 -11 -35 41 -73 59 -44 4 6 -1 7
-11 3 -11 -4 -22 1 -30 12 -18 24 0 59 27 52 10 -3 17 -1 13 4 -6 11 -25 11
-40 1z"/>
<path d="M3590 99 l0 -42 20 26 c24 30 25 43 4 51 -24 9 -24 9 -24 -35z m30
10 c0 -5 -4 -9 -10 -9 -5 0 -10 7 -10 16 0 8 5 12 10 9 6 -3 10 -10 10 -16z"/>
<path d="M3650 95 c0 -43 1 -45 28 -44 23 2 24 2 5 6 -27 5 -31 33 -5 33 16 1
16 1 0 11 -24 14 -22 27 5 32 19 4 18 4 -5 6 -27 1 -28 -1 -28 -44z"/>
<path d="M3740 95 c0 -43 1 -45 28 -44 23 2 24 2 5 6 -27 5 -31 33 -5 33 16 1
16 1 0 11 -24 14 -22 27 5 32 19 4 18 4 -5 6 -27 1 -28 -1 -28 -44z"/>
<path d="M3811 93 c1 -27 4 -39 6 -28 3 11 10 23 17 27 8 6 7 8 -1 8 -20 0
-15 28 5 33 13 4 11 5 -5 6 -21 1 -23 -3 -22 -46z"/>
<path d="M3861 93 c1 -27 4 -38 6 -25 2 12 12 22 21 22 15 1 14 2 -2 12 -19
11 -19 11 -1 24 18 13 18 14 -3 14 -20 0 -22 -5 -21 -47z"/>
<path d="M3923 95 c0 -27 2 -38 4 -22 2 15 2 37 0 50 -2 12 -4 0 -4 -28z"/>
<path d="M3968 129 c-24 -13 -23 -56 1 -69 25 -13 41 -13 41 0 0 5 -6 7 -13 4
-8 -3 -20 2 -27 11 -17 20 -1 51 24 49 9 -1 16 2 16 7 0 12 -21 11 -42 -2z"/>
<path d="M4033 95 c0 -27 2 -38 4 -22 2 15 2 37 0 50 -2 12 -4 0 -4 -28z"/>
<path d="M4060 95 c0 -40 2 -45 23 -44 16 1 18 2 5 6 -10 2 -18 11 -18 18 0 7
8 16 18 18 16 4 16 5 0 6 -10 0 -18 7 -18 15 0 8 8 17 18 19 13 4 11 5 -5 6
-21 1 -23 -4 -23 -44z"/>
<path d="M4217 132 c6 -4 13 -25 16 -47 l4 -40 1 42 c1 23 8 44 15 46 6 3 -1
6 -18 6 -17 0 -25 -3 -18 -7z"/>
<path d="M4301 130 c0 -8 6 -28 14 -45 13 -29 14 -29 20 -7 8 25 25 30 25 8 0
-31 18 -23 33 14 18 46 14 53 -7 13 l-15 -28 -9 25 -9 24 -13 -24 -13 -25 -13
30 c-7 17 -13 23 -13 15z"/>
<path d="M4423 95 c0 -27 2 -38 4 -22 2 15 2 37 0 50 -2 12 -4 0 -4 -28z"/>
<path d="M4460 93 c4 -44 5 -45 8 -13 2 19 8 41 14 47 8 10 6 13 -8 13 -17 0
-19 -6 -14 -47z"/>
<path d="M4701 102 c-1 -30 4 -44 14 -48 24 -9 45 15 44 50 -2 29 -2 29 -6 4
-2 -14 -11 -32 -18 -38 -17 -14 -21 -6 -28 45 -3 23 -4 20 -6 -13z"/>
<path d="M4777 132 c6 -4 13 -25 16 -47 l4 -40 1 42 c1 23 8 44 15 46 6 3 -1
6 -18 6 -17 0 -25 -3 -18 -7z"/>
<path d="M4848 129 c-27 -15 -23 -57 7 -71 19 -8 28 -8 40 2 21 18 19 57 -4
70 -23 12 -22 12 -43 -1z m36 -5 c21 -8 21 -50 0 -58 -32 -12 -57 27 -32 52
14 14 12 14 32 6z"/>
<path d="M5107 132 c6 -4 13 -25 16 -47 l4 -40 1 42 c1 23 8 44 15 46 6 3 -1
6 -18 6 -17 0 -25 -3 -18 -7z"/>
<path d="M5206 124 c-9 -8 -16 -22 -16 -29 0 -18 27 -45 45 -45 18 0 45 27 45
45 0 18 -27 45 -45 45 -7 0 -21 -7 -29 -16z m58 -16 c8 -14 7 -21 -6 -34 -30
-30 -75 9 -48 42 16 18 39 15 54 -8z"/>
<path d="M5360 108 l0 -32 -30 29 -30 29 2 -45 c1 -36 2 -38 5 -12 l4 32 29
-32 29 -32 1 48 c0 26 -2 47 -5 47 -3 0 -5 -14 -5 -32z"/>
<path d="M2516 96 c-4 -21 -5 -41 -2 -44 3 -3 6 4 6 16 0 28 17 28 26 0 6 -21
7 -20 19 8 l12 29 7 -29 c10 -41 15 -28 7 19 l-7 40 -17 -30 c-9 -16 -16 -25
-17 -19 0 5 -6 19 -14 29 -12 17 -14 15 -20 -19z"/>
<path d="M2627 95 c-20 -42 -22 -54 -5 -37 16 16 45 15 51 0 4 -10 6 -10 6 0
1 12 -26 72 -32 72 -2 0 -11 -16 -20 -35z m33 -6 c0 -5 -4 -9 -10 -9 -5 0 -10
7 -10 16 0 8 5 12 10 9 6 -3 10 -10 10 -16z"/>
<path d="M3176 94 c-9 -20 -14 -39 -11 -42 3 -3 5 0 5 6 0 7 11 12 25 12 14 0
25 -5 25 -12 0 -6 2 -9 5 -6 5 5 -22 78 -28 78 -2 0 -11 -16 -21 -36z m28 1
c3 -9 0 -15 -9 -15 -9 0 -12 6 -9 15 4 8 7 15 9 15 2 0 5 -7 9 -15z"/>
<path d="M3516 101 c-10 -18 -15 -38 -12 -44 3 -9 5 -9 5 1 1 15 33 16 49 0
17 -17 14 2 -7 41 l-18 35 -17 -33z m24 -6 c0 -8 -4 -15 -10 -15 -5 0 -7 7 -4
15 4 8 8 15 10 15 2 0 4 -7 4 -15z"/>
<path d="M4131 89 c2 -31 3 -36 6 -15 l5 28 29 -28 29 -28 -1 45 c-2 31 -3 36
-6 15 l-5 -28 -29 28 -29 28 1 -45z"/>
<path d="M4503 95 c-1 -19 3 -35 8 -35 5 0 9 7 9 15 0 24 28 17 33 -7 2 -13 4
-3 4 22 1 25 -1 37 -4 28 -5 -22 -33 -24 -33 -3 0 32 -16 13 -17 -20z"/>
<path d="M4627 95 c-20 -42 -22 -54 -5 -37 16 16 45 15 51 0 4 -10 6 -10 6 0
1 12 -26 72 -32 72 -2 0 -11 -16 -20 -35z m33 -6 c0 -5 -4 -9 -10 -9 -5 0 -10
7 -10 16 0 8 5 12 10 9 6 -3 10 -10 10 -16z"/>
<path d="M4935 97 c-4 -21 -5 -41 -1 -44 3 -4 6 3 6 15 0 12 5 22 10 22 6 0
10 -7 10 -15 0 -23 18 -18 26 8 l8 22 7 -25 c7 -24 7 -24 8 6 1 42 -10 50 -24
17 l-12 -28 -15 30 -16 30 -7 -38z"/>
<path d="M5046 94 c-9 -20 -14 -39 -11 -42 3 -3 5 0 5 6 0 7 11 12 25 12 14 0
25 -5 25 -12 0 -6 2 -9 5 -6 5 5 -22 78 -28 78 -2 0 -11 -16 -21 -36z m28 1
c3 -9 0 -15 -9 -15 -9 0 -12 6 -9 15 4 8 7 15 9 15 2 0 5 -7 9 -15z"/>
<path d="M5173 90 c0 -25 2 -35 4 -22 2 12 2 32 0 45 -2 12 -4 2 -4 -23z"/>
<path d="M2730 70 c6 -11 16 -20 22 -20 6 0 3 9 -7 20 -10 11 -20 20 -22 20
-2 0 1 -9 7 -20z"/>
<path d="M3610 71 c0 -5 5 -13 10 -16 6 -3 10 -2 10 4 0 5 -4 13 -10 16 -5 3
-10 2 -10 -4z"/>
</g>
</svg>
